 <svg
          className="ml-2"
          fill="none"
          height="23"
          viewBox="0 0 106 23"
          width="106"
          xmlns="http://www.w3.org/2000/svg"
        >
          <path
            d="M7.00665 18.473C5.74665 18.473 4.52554 18.2941 3.34332 17.9363C2.17665 17.5785 1.25109 17.1041 0.56665 16.513L1.61665 14.1563C2.28554 14.6852 3.10221 15.1208 4.06665 15.463C5.04665 15.7897 6.02665 15.953 7.00665 15.953C8.21998 15.953 9.1222 15.7585 9.71331 15.3697C10.32 14.9808 10.6233 14.4674 10.6233 13.8297C10.6233 13.363 10.4522 12.9819 10.11 12.6863C9.78331 12.3752 9.36331 12.1341 8.84998 11.963C8.33665 11.7919 7.63665 11.5974 6.74998 11.3797C5.50554 11.0841 4.49443 10.7885 3.71665 10.493C2.95443 10.1974 2.29332 9.73854 1.73332 9.11632C1.18887 8.47854 0.91665 7.62298 0.91665 6.54965C0.91665 5.64743 1.15776 4.83076 1.63998 4.09965C2.13776 3.35298 2.87665 2.76187 3.85665 2.32632C4.8522 1.89076 6.06554 1.67298 7.49665 1.67298C8.4922 1.67298 9.4722 1.79743 10.4366 2.04632C11.4011 2.29521 12.2333 2.65298 12.9333 3.11965L11.9766 5.47632C11.2611 5.05632 10.5144 4.73743 9.73665 4.51965C8.95887 4.30187 8.20442 4.19298 7.47331 4.19298C6.27554 4.19298 5.38109 4.39521 4.78998 4.79965C4.21443 5.2041 3.92665 5.74076 3.92665 6.40965C3.92665 6.87632 4.08998 7.25743 4.41665 7.55298C4.75887 7.84854 5.18665 8.08187 5.69998 8.25298C6.21332 8.4241 6.91331 8.61854 7.79998 8.83632C9.01331 9.11632 10.0089 9.41187 10.7866 9.72299C11.5644 10.0185 12.2255 10.4774 12.77 11.0997C13.33 11.7219 13.61 12.5619 13.61 13.6197C13.61 14.5219 13.3611 15.3385 12.8633 16.0697C12.3811 16.8008 11.6422 17.3841 10.6466 17.8197C9.65109 18.2552 8.43776 18.473 7.00665 18.473Z"
            fill="#101828"
          />
          <path
            d="M16.3378 5.77965H19.2545V18.2397H16.3378V5.77965ZM17.8078 3.72632C17.2789 3.72632 16.8356 3.56298 16.4778 3.23632C16.12 2.8941 15.9411 2.4741 15.9411 1.97632C15.9411 1.47854 16.12 1.06632 16.4778 0.739651C16.8356 0.397429 17.2789 0.226318 17.8078 0.226318C18.3367 0.226318 18.78 0.389651 19.1378 0.716318C19.4956 1.02743 19.6745 1.4241 19.6745 1.90632C19.6745 2.41965 19.4956 2.85521 19.1378 3.21298C18.7956 3.55521 18.3522 3.72632 17.8078 3.72632Z"
            fill="#101828"
          />
          <path
            d="M26.9326 18.403C25.9215 18.403 24.9337 18.2708 23.9692 18.0063C23.0048 17.7419 22.2348 17.4074 21.6592 17.003L22.7792 14.7863C23.3392 15.1597 24.0081 15.463 24.7859 15.6963C25.5792 15.9141 26.357 16.023 27.1192 16.023C28.8615 16.023 29.7326 15.5641 29.7326 14.6463C29.7326 14.2108 29.507 13.9074 29.0559 13.7363C28.6204 13.5652 27.9126 13.4019 26.9326 13.2463C25.9059 13.0908 25.0659 12.9119 24.4126 12.7097C23.7748 12.5074 23.2148 12.1574 22.7326 11.6597C22.2659 11.1463 22.0326 10.4385 22.0326 9.53632C22.0326 8.3541 22.5226 7.41298 23.5026 6.71298C24.4981 5.99743 25.8359 5.63965 27.5159 5.63965C28.3715 5.63965 29.227 5.74076 30.0826 5.94299C30.9381 6.12965 31.6381 6.38632 32.1826 6.71298L31.0626 8.92965C30.0048 8.30743 28.8148 7.99632 27.4926 7.99632C26.637 7.99632 25.9837 8.12854 25.5326 8.39298C25.097 8.64187 24.8792 8.97632 24.8792 9.39632C24.8792 9.86299 25.1126 10.1974 25.5792 10.3997C26.0615 10.5863 26.8004 10.7652 27.7959 10.9363C28.7915 11.0919 29.6081 11.2708 30.2459 11.473C30.8837 11.6752 31.4281 12.0174 31.8792 12.4997C32.3459 12.9819 32.5792 13.6663 32.5792 14.553C32.5792 15.7197 32.0737 16.653 31.0626 17.353C30.0515 18.053 28.6748 18.403 26.9326 18.403Z"
            fill="#101828"
          />
          <path
            d="M46.5298 5.77965L40.6965 19.243C40.1521 20.5963 39.4909 21.5452 38.7132 22.0897C37.9354 22.6497 36.9943 22.9297 35.8898 22.9297C35.2676 22.9297 34.6532 22.8285 34.0465 22.6263C33.4398 22.4241 32.9421 22.1441 32.5532 21.7863L33.7198 19.6397C33.9998 19.9041 34.3265 20.1141 34.6998 20.2697C35.0887 20.4252 35.4776 20.503 35.8665 20.503C36.3798 20.503 36.7998 20.3708 37.1265 20.1063C37.4687 19.8419 37.7798 19.3985 38.0598 18.7763L38.2698 18.2863L32.8332 5.77965H35.8665L39.7865 14.9963L43.7298 5.77965H46.5298Z"
            fill="#101828"
          />
          <path
            d="M55.2594 5.63965C56.4727 5.63965 57.5539 5.9041 58.5027 6.43298C59.4672 6.96187 60.2216 7.70854 60.7661 8.67299C61.3105 9.63743 61.5827 10.7497 61.5827 12.0097C61.5827 13.2697 61.3105 14.3897 60.7661 15.3697C60.2216 16.3341 59.4672 17.0808 58.5027 17.6097C57.5539 18.1385 56.4727 18.403 55.2594 18.403C53.5794 18.403 52.2494 17.843 51.2694 16.723V22.7663H48.3528V5.77965H51.1294V7.41299C51.6116 6.82187 52.2027 6.37854 52.9027 6.08298C53.6183 5.78743 54.4039 5.63965 55.2594 5.63965ZM54.9327 15.9063C56.0061 15.9063 56.885 15.5485 57.5694 14.833C58.2694 14.1174 58.6194 13.1763 58.6194 12.0097C58.6194 10.843 58.2694 9.90187 57.5694 9.18632C56.885 8.47076 56.0061 8.11299 54.9327 8.11299C54.2327 8.11299 53.6027 8.27632 53.0427 8.60299C52.4827 8.9141 52.0394 9.36521 51.7127 9.95632C51.3861 10.5474 51.2227 11.2319 51.2227 12.0097C51.2227 12.7874 51.3861 13.4719 51.7127 14.063C52.0394 14.6541 52.4827 15.113 53.0427 15.4397C53.6027 15.7508 54.2327 15.9063 54.9327 15.9063Z"
            fill="#101828"
          />
          <path
            d="M71.4188 5.63965C72.9899 5.63965 74.2499 6.09854 75.1988 7.01632C76.1477 7.9341 76.6222 9.29521 76.6222 11.0997V18.2397H73.7055V11.473C73.7055 10.3841 73.4488 9.56743 72.9355 9.02299C72.4222 8.46299 71.6911 8.18298 70.7422 8.18298C69.6688 8.18298 68.8211 8.50965 68.1988 9.16298C67.5766 9.80076 67.2655 10.7263 67.2655 11.9397V18.2397H64.3488V0.926318H67.2655V7.22632C67.7477 6.71299 68.3388 6.3241 69.0388 6.05965C69.7544 5.77965 70.5477 5.63965 71.4188 5.63965Z"
            fill="#101828"
          />
          <path
            d="M92.3855 5.77965V18.2397H89.6088V16.653C89.1421 17.213 88.5588 17.6485 87.8588 17.9597C87.1588 18.2552 86.4044 18.403 85.5955 18.403C83.931 18.403 82.6166 17.9441 81.6521 17.0263C80.7032 16.093 80.2288 14.7163 80.2288 12.8963V5.77965H83.1455V12.4997C83.1455 13.6197 83.3944 14.4597 83.8921 15.0197C84.4055 15.5641 85.1288 15.8363 86.0621 15.8363C87.1043 15.8363 87.9288 15.5174 88.5355 14.8797C89.1577 14.2263 89.4688 13.293 89.4688 12.0797V5.77965H92.3855Z"
            fill="#101828"
          />
          <path
            d="M100.054 18.403C99.0432 18.403 98.0554 18.2708 97.091 18.0063C96.1265 17.7419 95.3565 17.4074 94.781 17.003L95.901 14.7863C96.461 15.1597 97.1298 15.463 97.9076 15.6963C98.7009 15.9141 99.4787 16.023 100.241 16.023C101.983 16.023 102.854 15.5641 102.854 14.6463C102.854 14.2108 102.629 13.9074 102.178 13.7363C101.742 13.5652 101.034 13.4019 100.054 13.2463C99.0276 13.0908 98.1876 12.9119 97.5343 12.7097C96.8965 12.5074 96.3365 12.1574 95.8543 11.6597C95.3876 11.1463 95.1543 10.4385 95.1543 9.53632C95.1543 8.3541 95.6443 7.41298 96.6243 6.71298C97.6198 5.99743 98.9576 5.63965 100.638 5.63965C101.493 5.63965 102.349 5.74076 103.204 5.94299C104.06 6.12965 104.76 6.38632 105.304 6.71298L104.184 8.92965C103.127 8.30743 101.937 7.99632 100.614 7.99632C99.7587 7.99632 99.1054 8.12854 98.6543 8.39298C98.2187 8.64187 98.001 8.97632 98.001 9.39632C98.001 9.86299 98.2343 10.1974 98.701 10.3997C99.1832 10.5863 99.9221 10.7652 100.918 10.9363C101.913 11.0919 102.73 11.2708 103.368 11.473C104.005 11.6752 104.55 12.0174 105.001 12.4997C105.468 12.9819 105.701 13.6663 105.701 14.553C105.701 15.7197 105.195 16.653 104.184 17.353C103.173 18.053 101.797 18.403 100.054 18.403Z"
            fill="#101828"
          />
        </svg>
